<svg xmlns="http://www.w3.org/2000/svg" xmlns:xlink="http://www.w3.org/1999/xlink" version="1.1" x="0px" y="0px" viewBox="0 0 100 125" style="enable-background:new 0 0 100 100;" xml:space="preserve"><g><path d="M34.33,12.75c2.88,0,5.22-2.34,5.22-5.22c0-2.88-2.34-5.23-5.22-5.23c-2.88,0-5.23,2.34-5.23,5.23   C29.1,10.4,31.44,12.75,34.33,12.75z M34.33,6.1c0.79,0,1.42,0.64,1.42,1.43s-0.64,1.42-1.42,1.42S32.9,8.31,32.9,7.52   S33.54,6.1,34.33,6.1z"/><path d="M31.19,67.92c-2.88,0-5.22,2.34-5.22,5.23s2.34,5.23,5.22,5.23c2.88,0,5.23-2.34,5.23-5.23S34.07,67.92,31.19,67.92z    M31.19,74.57c-0.79,0-1.42-0.64-1.42-1.43s0.64-1.43,1.42-1.43s1.43,0.64,1.43,1.43S31.98,74.57,31.19,74.57z"/><circle cx="49.33" cy="10.1" r="2.38"/><circle cx="72.65" cy="93.43" r="2.38"/><path d="M93.92,87.52h-2.85v-2.85c0-1.05-0.85-1.9-1.9-1.9s-1.9,0.85-1.9,1.9v2.85h-2.85c-1.05,0-1.9,0.85-1.9,1.9   s0.85,1.9,1.9,1.9h2.85v2.85c0,1.05,0.85,1.9,1.9,1.9s1.9-0.85,1.9-1.9v-2.85h2.85c1.05,0,1.9-0.85,1.9-1.9   S94.97,87.52,93.92,87.52z"/><path d="M9.61,13.5v2.85c0,1.05,0.85,1.9,1.9,1.9s1.9-0.85,1.9-1.9V13.5h2.85c1.05,0,1.9-0.85,1.9-1.9s-0.85-1.9-1.9-1.9h-2.85   V6.85c0-1.05-0.85-1.9-1.9-1.9s-1.9,0.85-1.9,1.9V9.7H6.76c-1.05,0-1.9,0.85-1.9,1.9s0.85,1.9,1.9,1.9H9.61z"/><path d="M94.19,63.4L78.97,8.88c-0.5-1.78-1.78-3.18-3.51-3.84c-1.73-0.66-3.62-0.45-5.17,0.55L55.4,15.25   c-1.26,0.82-2.73,1.22-4.23,1.18l-20.08-0.61c-2.28-0.07-4.5,0.55-6.42,1.79L9.19,27.65c-2.98,1.93-4.34,5.53-3.38,8.95   l15.23,54.52c0.5,1.78,1.78,3.18,3.51,3.84c0.67,0.25,1.36,0.38,2.05,0.38c1.09,0,2.17-0.31,3.12-0.93l14.88-9.65   c1.26-0.82,2.73-1.21,4.23-1.18l20.08,0.61c2.28,0.08,4.5-0.55,6.42-1.79l15.48-10.04C93.79,70.42,95.15,66.82,94.19,63.4z    M88.74,69.16L73.26,79.2c-1.26,0.82-2.72,1.22-4.23,1.18l-20.08-0.61c-2.28-0.08-4.5,0.55-6.42,1.79l-14.88,9.65   c-0.53,0.34-1.17,0.41-1.76,0.19c-0.59-0.22-1.03-0.7-1.19-1.31L9.47,35.58c-0.51-1.81,0.21-3.72,1.79-4.74L26.74,20.8   c1.2-0.78,2.58-1.19,4-1.19c0.08,0,0.15,0,0.23,0l20.08,0.61c2.28,0.09,4.5-0.55,6.41-1.79l14.88-9.65   c0.53-0.34,1.17-0.41,1.76-0.19c0.59,0.22,1.03,0.7,1.19,1.31l15.23,54.52C91.04,66.24,90.32,68.14,88.74,69.16z"/><path d="M30.25,32.28c0.23,0.84,1,1.39,1.83,1.39c0.17,0,0.34-0.02,0.51-0.07c1.01-0.28,1.6-1.33,1.32-2.34l-1.66-5.96   c-0.28-1.01-1.33-1.6-2.34-1.32c-1.01,0.28-1.6,1.33-1.32,2.34L30.25,32.28z"/><path d="M36.82,41.67c-0.28-1.01-1.33-1.6-2.34-1.32c-1.01,0.28-1.6,1.33-1.32,2.34L42.3,75.4c0.23,0.84,1,1.39,1.83,1.39   c0.17,0,0.34-0.02,0.51-0.07c1.01-0.28,1.6-1.33,1.32-2.34L36.82,41.67z"/><path d="M70.13,69.08c-0.28-1.01-1.33-1.6-2.34-1.32c-1.01,0.28-1.6,1.33-1.32,2.34l1.49,5.34c0.23,0.84,1,1.39,1.83,1.39   c0.17,0,0.34-0.02,0.51-0.07c1.01-0.28,1.6-1.33,1.32-2.34L70.13,69.08z"/><path d="M63.56,59.7c0.23,0.84,1,1.39,1.83,1.39c0.17,0,0.34-0.02,0.51-0.07c1.01-0.28,1.6-1.33,1.32-2.34l-9.31-33.33   c-0.28-1.01-1.33-1.6-2.34-1.32c-1.01,0.28-1.6,1.33-1.32,2.34L63.56,59.7z"/><path d="M64.36,28.15l3.05,1.72l-1.72,3.05c-0.52,0.91-0.19,2.07,0.72,2.59c0.29,0.17,0.62,0.25,0.93,0.25   c0.66,0,1.31-0.35,1.66-0.97l1.72-3.05l3.05,1.72c0.29,0.17,0.62,0.25,0.93,0.25c0.66,0,1.31-0.35,1.66-0.97   c0.52-0.91,0.19-2.07-0.72-2.59l-3.05-1.72l1.72-3.05c0.52-0.91,0.19-2.07-0.72-2.59c-0.92-0.52-2.07-0.19-2.59,0.72l-1.72,3.05   l-3.05-1.72c-0.92-0.52-2.07-0.19-2.59,0.72C63.12,26.48,63.45,27.64,64.36,28.15z"/><path d="M27.64,60.43c-1.01,0.28-1.6,1.33-1.32,2.34l0.52,1.86c0.23,0.84,1,1.39,1.83,1.39c0.17,0,0.34-0.02,0.51-0.07   c1.01-0.28,1.6-1.33,1.32-2.34l-0.52-1.86C29.7,60.74,28.65,60.15,27.64,60.43z"/><path d="M39.88,38.79c1.06,0.31,2.05,0.79,2.96,1.42c0.33,0.23,0.71,0.34,1.08,0.34c0.6,0,1.19-0.29,1.56-0.82   c0.6-0.86,0.38-2.05-0.48-2.64c-1.24-0.86-2.6-1.51-4.05-1.94c-1.01-0.3-2.06,0.28-2.36,1.28C38.3,37.44,38.88,38.49,39.88,38.79z"/><path d="M77.46,48.79l-0.71-2.53c-0.28-1.01-1.32-1.6-2.34-1.32c-1.01,0.28-1.6,1.33-1.32,2.34l0.71,2.53   c0.1,0.35,0.18,0.7,0.24,1.05c0.16,0.93,0.96,1.58,1.87,1.58c0.11,0,0.21-0.01,0.32-0.03c1.03-0.18,1.73-1.16,1.55-2.19   C77.7,49.75,77.59,49.26,77.46,48.79z"/><path d="M53.71,56.15c-0.08-0.22-0.15-0.44-0.21-0.67l-0.82-2.95c-0.28-1.01-1.33-1.6-2.34-1.32c-1.01,0.28-1.6,1.33-1.32,2.34   l0.82,2.95c0.09,0.31,0.18,0.62,0.29,0.92c0.28,0.78,1.01,1.26,1.79,1.26c0.21,0,0.43-0.04,0.64-0.11   C53.55,58.23,54.07,57.14,53.71,56.15z"/><path d="M49.68,48.86c1.01-0.28,1.6-1.33,1.32-2.34l-0.46-1.66c-0.23-0.81-0.52-1.6-0.89-2.35c-0.46-0.95-1.59-1.34-2.54-0.88   c-0.94,0.46-1.34,1.59-0.88,2.54c0.27,0.55,0.48,1.13,0.65,1.72l0.46,1.66c0.23,0.84,1,1.39,1.83,1.39   C49.34,48.93,49.51,48.91,49.68,48.86z"/><path d="M67.69,66.13c0.54-0.15,1.08-0.34,1.6-0.55c0.97-0.4,1.43-1.51,1.03-2.48c-0.4-0.97-1.51-1.43-2.48-1.03   c-0.38,0.16-0.77,0.29-1.17,0.4l-0.51,0.14c-0.52,0.14-1.05,0.25-1.58,0.31c-1.04,0.12-1.79,1.07-1.66,2.11   c0.11,0.97,0.93,1.68,1.88,1.68c0.07,0,0.15,0,0.22-0.01c0.72-0.08,1.45-0.23,2.15-0.43L67.69,66.13z"/><path d="M33.2,35.09c-1.25,0.35-2.43,0.86-3.53,1.53c-0.9,0.54-1.18,1.71-0.64,2.61c0.36,0.59,0.98,0.91,1.63,0.91   c0.34,0,0.68-0.09,0.98-0.28c0.8-0.49,1.67-0.86,2.58-1.12c0.15-0.04,0.3-0.08,0.46-0.12c1.02-0.23,1.66-1.25,1.43-2.28   s-1.25-1.66-2.28-1.43C33.62,34.98,33.41,35.03,33.2,35.09z"/><path d="M59.43,62.19c-1.02-0.43-1.95-1.01-2.79-1.73c-0.79-0.69-1.99-0.61-2.68,0.19s-0.61,1.99,0.19,2.68   c1.14,0.99,2.42,1.79,3.81,2.37c0.24,0.1,0.49,0.15,0.73,0.15c0.74,0,1.45-0.44,1.75-1.17C60.85,63.71,60.4,62.6,59.43,62.19z"/><path d="M76.01,54.9c-0.99-0.36-2.08,0.16-2.43,1.14c-0.37,1.04-0.91,2-1.59,2.87c-0.65,0.83-0.5,2.02,0.32,2.67   c0.35,0.27,0.76,0.4,1.17,0.4c0.56,0,1.12-0.25,1.5-0.73c0.93-1.19,1.66-2.51,2.17-3.93C77.5,56.35,76.99,55.26,76.01,54.9z"/><path d="M26.98,58.08c1.01-0.28,1.6-1.33,1.32-2.34l-1.05-3.76c-0.28-1.01-1.33-1.6-2.34-1.32c-1.01,0.28-1.6,1.33-1.32,2.34   l1.05,3.76c0.23,0.84,1,1.39,1.83,1.39C26.64,58.15,26.81,58.13,26.98,58.08z"/><path d="M24.67,48.2c0.12,0.02,0.24,0.04,0.36,0.04c0.89,0,1.69-0.63,1.86-1.54c0.21-1.08,0.59-2.12,1.13-3.08   c0.51-0.92,0.19-2.07-0.73-2.59c-0.92-0.51-2.07-0.19-2.59,0.73c-0.74,1.32-1.26,2.73-1.55,4.21C22.97,47,23.64,48,24.67,48.2z"/><path d="M72.2,37.03c-1.01,0.28-1.6,1.33-1.32,2.34l0.52,1.86c0.24,0.84,1,1.39,1.83,1.39c0.17,0,0.34-0.02,0.51-0.07   c1.01-0.28,1.6-1.33,1.32-2.34l-0.52-1.86C74.26,37.34,73.21,36.75,72.2,37.03z"/></g><text x="0" y="115" fill="#000000" font-size="5px" font-weight="bold" font-family="'Helvetica Neue', Helvetica, Arial-Unicode, Arial, Sans-serif">Created by Crystal Gordon</text><text x="0" y="120" fill="#000000" font-size="5px" font-weight="bold" font-family="'Helvetica Neue', Helvetica, Arial-Unicode, Arial, Sans-serif">from the Noun Project</text></svg>